# Blender v3.0.0 OBJ File: 'Monitor.blend'
# www.blender.org
v -0.485916 2.574853 1.841170
v -0.499066 2.558467 1.845956
v -0.509646 2.540095 1.849807
v -0.517395 2.520187 1.852627
v -0.522122 2.499234 1.854347
v -0.523789 2.476695 1.854954
v -0.523789 2.140938 1.854954
v 1.073824 2.140938 1.273471
v 1.073824 2.476695 1.273471
v 1.072157 2.499234 1.274077
v 1.067430 2.520187 1.275798
v 1.059681 2.540095 1.278618
v 1.049102 2.558467 1.282469
v 1.035951 2.574852 1.287255
v 1.020554 2.588847 1.292859
v 1.003289 2.600106 1.299143
v 0.984582 2.608352 1.305952
v 0.964893 2.613382 1.313118
v 0.943713 2.615156 1.320827
v -0.393678 2.615156 1.807598
v -0.414858 2.613382 1.815306
v -0.434547 2.608352 1.822473
v -0.453254 2.600106 1.829281
v -0.470519 2.588847 1.835565
v -0.485916 1.707024 1.841169
v -0.470519 1.693030 1.835565
v -0.453254 1.681771 1.829281
v -0.434547 1.673525 1.822472
v -0.414858 1.668495 1.815306
v -0.393678 1.666721 1.807597
v 0.943713 1.666721 1.320827
v 0.964893 1.668495 1.313118
v 0.984582 1.673525 1.305952
v 1.003289 1.681771 1.299143
v 1.020554 1.693030 1.292859
v 1.035951 1.707024 1.287255
v 1.049102 1.723410 1.282469
v 1.059681 1.741782 1.278618
v 1.067430 1.761690 1.275798
v 1.072157 1.782643 1.274077
v 1.073824 1.805182 1.273471
v -0.523789 1.805182 1.854954
v -0.522122 1.782642 1.854347
v -0.517395 1.761690 1.852627
v -0.509646 1.741781 1.849806
v -0.499066 1.723409 1.845956
vt 0.007409 0.955945
vt -0.001104 0.938727
vt -0.007953 0.919422
vt -0.012969 0.898503
vt -0.016029 0.876487
vt -0.017108 0.852803
vt -0.017108 0.499999
vt 1.017108 0.499999
vt 1.017108 0.852803
vt 1.016029 0.876487
vt 1.012969 0.898503
vt 1.007953 0.919422
vt 1.001105 0.938727
vt 0.992591 0.955944
vt 0.982624 0.970649
vt 0.971448 0.982480
vt 0.959337 0.991145
vt 0.946592 0.996430
vt 0.932881 0.998294
vt 0.067119 0.998294
vt 0.053408 0.996430
vt 0.040663 0.991145
vt 0.028552 0.982480
vt 0.017376 0.970649
vt 0.007409 0.044055
vt 0.017376 0.029351
vt 0.028552 0.017520
vt 0.040663 0.008855
vt 0.053408 0.003570
vt 0.067119 0.001706
vt 0.932881 0.001706
vt 0.946592 0.003570
vt 0.959337 0.008855
vt 0.971448 0.017520
vt 0.982624 0.029351
vt 0.992591 0.044055
vt 1.001105 0.061273
vt 1.007953 0.080578
vt 1.012969 0.101497
vt 1.016029 0.123513
vt 1.017108 0.147197
vt -0.017108 0.147197
vt -0.016029 0.123512
vt -0.012969 0.101497
vt -0.007953 0.080578
vt -0.001104 0.061272
vn 0.3420 -0.0000 0.9397
s 1
f 1/1/1 2/2/1 3/3/1 4/4/1 5/5/1 6/6/1 7/7/1 8/8/1 9/9/1 10/10/1 11/11/1 12/12/1 13/13/1 14/14/1 15/15/1 16/16/1 17/17/1 18/18/1 19/19/1 20/20/1 21/21/1 22/22/1 23/23/1 24/24/1
f 25/25/1 26/26/1 27/27/1 28/28/1 29/29/1 30/30/1 31/31/1 32/32/1 33/33/1 34/34/1 35/35/1 36/36/1 37/37/1 38/38/1 39/39/1 40/40/1 41/41/1 8/8/1 7/7/1 42/42/1 43/43/1 44/44/1 45/45/1 46/46/1
