# Blender 4.0.2
# www.blender.org
o Round_elevator_doors_reference.001
v 3.046529 5.211901 -3.046528
v 3.302189 -0.003580 -3.302189
v 3.302189 5.211901 -3.302189
v 3.046528 -0.003580 -3.046528
v 0.730549 5.211901 -4.612505
v 0.043820 -0.003580 -4.666552
v 0.043820 5.211901 -4.666551
v 0.730549 -0.003580 -4.612505
v 1.443109 5.211901 -4.441434
v 1.443109 -0.003580 -4.441434
v 2.120136 5.211901 -4.161001
v 2.120136 -0.003580 -4.161001
v 2.744957 5.211901 -3.778110
v 2.744957 -0.003581 -3.778110
v 0.000000 -0.003580 -4.626045
v 0.000000 5.211901 -4.626044
v 0.040507 -0.003580 -4.305254
v 0.000000 5.211901 -4.349073
v 0.000000 -0.003580 -4.349074
v 0.040507 5.211901 -4.305254
v 0.673989 5.211901 -4.255397
v 0.673989 -0.003580 -4.255397
v 1.331382 5.211901 -4.097572
v 1.331382 -0.003580 -4.097572
v 1.955992 5.211901 -3.838849
v 1.955991 -0.003581 -3.838850
v 2.532439 5.211901 -3.485602
v 2.532439 -0.003581 -3.485603
vn 0.7071 -0.0000 0.7071
vn 0.1564 -0.0000 -0.9877
vn 0.0785 -0.0000 -0.9969
vn 0.3090 -0.0000 -0.9511
vn 0.4540 -0.0000 -0.8910
vn 0.5878 -0.0000 -0.8090
vn 0.6494 -0.0000 -0.7604
vn -0.6788 -0.0000 -0.7343
vn -0.7343 -0.0000 0.6788
vn -1.0000 -0.0000 -0.0000
vn -0.1564 -0.0000 0.9877
vn -0.0785 -0.0000 0.9969
vn -0.3090 -0.0000 0.9511
vn -0.4540 -0.0000 0.8910
vn -0.5878 -0.0000 0.8090
vn -0.6494 -0.0000 0.7604
vt 0.523282 0.234682
vt 0.292894 0.217137
vt 0.523282 0.217137
vt 0.292894 0.234682
vt 0.523282 0.458587
vt 0.292894 0.426485
vt 0.523282 0.426485
vt 0.292894 0.458587
vt 0.523282 0.494054
vt 0.292894 0.494054
vt 0.523282 0.529962
vt 0.292894 0.529962
vt 0.523282 0.565430
vt 0.292894 0.565430
vt 0.523282 0.599581
vt 0.292894 0.599581
vt 0.292894 0.423849
vt 0.523282 0.423849
vt 0.292894 0.407775
vt 0.523282 0.410410
vt 0.292894 0.410410
vt 0.523282 0.407775
vt 0.523282 0.375676
vt 0.292894 0.375676
vt 0.523282 0.340209
vt 0.292894 0.340209
vt 0.523282 0.304301
vt 0.292894 0.304301
vt 0.523282 0.268833
vt 0.292894 0.268833
s 1
f 1/1/1 2/2/1 3/3/1
f 1/1/1 4/4/1 2/2/1
f 5/5/2 6/6/3 7/7/3
f 5/5/2 8/8/2 6/6/3
f 9/9/4 8/8/2 5/5/2
f 9/9/4 10/10/4 8/8/2
f 11/11/5 10/10/4 9/9/4
f 11/11/5 12/12/5 10/10/4
f 13/13/6 12/12/5 11/11/5
f 13/13/6 14/14/6 12/12/5
f 3/15/7 14/14/6 13/13/6
f 3/15/7 2/16/7 14/14/6
f 15/17/8 7/7/8 6/6/8
f 15/17/8 16/18/8 7/7/8
f 17/19/9 18/20/9 19/21/9
f 17/19/9 20/22/9 18/20/9
f 16/18/10 19/21/10 18/20/10
f 16/18/10 15/17/10 19/21/10
f 21/23/11 20/22/12 17/19/12
f 21/23/11 17/19/12 22/24/11
f 22/24/11 23/25/13 21/23/11
f 22/24/11 24/26/13 23/25/13
f 25/27/14 23/25/13 24/26/13
f 25/27/14 24/26/13 26/28/14
f 26/28/14 27/29/15 25/27/14
f 26/28/14 28/30/15 27/29/15
f 1/1/16 27/29/15 28/30/15
f 1/1/16 28/30/15 4/4/16
